<?xml version="1.0" standalone="no"?>
<!DOCTYPE svg PUBLIC "-//W3C//DTD SVG 20010904//EN"
 "http://www.w3.org/TR/2001/REC-SVG-20010904/DTD/svg10.dtd">
<svg version="1.0" xmlns="http://www.w3.org/2000/svg"
 width="1024.000000pt" height="1024.000000pt" viewBox="0 0 1024.000000 1024.000000"
 preserveAspectRatio="xMidYMid meet">

<g transform="translate(0.000000,1024.000000) scale(0.100000,-0.100000)"
fill="#000000" stroke="none">
<path d="M9270 4576 c0 -23 -88 -94 -156 -127 -326 -155 -1240 -285 -2714
-385 -221 -15 -297 -24 -202 -24 30 0 42 -4 42 -14 0 -10 14 -16 43 -18 l42
-3 -37 -36 c-21 -20 -38 -39 -38 -43 0 -3 16 -6 35 -6 34 0 35 -1 35 -40 0
-22 5 -40 10 -40 6 0 6 -7 -1 -19 -24 -37 15 -76 52 -52 18 10 19 7 19 -39 l0
-50 -40 0 c-42 0 -54 -14 -20 -25 11 -3 20 -10 20 -15 0 -5 -9 -12 -20 -15
-16 -5 -20 -15 -20 -46 0 -42 14 -53 24 -17 4 17 8 20 17 11 7 -7 8 -19 4 -30
-4 -10 -9 -24 -11 -32 -1 -8 -10 -18 -18 -23 -9 -5 -16 -18 -16 -28 0 -16 -7
-20 -37 -21 l-38 0 33 -16 c17 -9 32 -19 32 -23 0 -4 -15 -14 -32 -23 -21 -10
-27 -16 -15 -16 15 -1 17 -12 17 -81 0 -73 -2 -80 -20 -80 -17 0 -20 -7 -20
-40 0 -57 -27 -55 -33 3 -2 23 -4 3 -5 -46 -2 -74 -5 -90 -22 -104 -13 -11
-20 -30 -20 -53 0 -23 -7 -42 -20 -53 -12 -10 -18 -22 -15 -27 10 -16 -17 -80
-34 -80 -11 0 -11 -4 3 -19 17 -19 7 -39 -14 -26 -16 10 -70 -23 -64 -40 3 -8
2 -20 -2 -26 -5 -9 -10 -7 -15 7 -6 16 -11 10 -29 -31 -13 -27 -29 -54 -36
-58 -8 -4 -14 -17 -14 -27 0 -13 -7 -20 -19 -20 -11 0 -23 -4 -26 -10 -3 -5
-17 -10 -30 -10 -12 0 -26 -7 -29 -16 -4 -11 -14 -15 -31 -11 -21 4 -25 1 -20
-14 5 -15 1 -19 -19 -19 -14 0 -26 -5 -26 -11 0 -6 -9 -9 -20 -6 -11 3 -20 1
-20 -4 0 -4 -26 -16 -57 -25 -32 -9 -67 -22 -78 -29 -19 -12 -235 -53 -325
-61 -25 -3 -61 -9 -80 -14 -65 -19 -647 -31 -920 -20 -287 12 -687 36 -830 51
-380 38 -518 55 -764 90 -153 21 -281 37 -283 35 -2 -2 29 -9 69 -15 40 -7
114 -18 163 -26 299 -47 785 -101 1115 -125 751 -53 1330 -60 2133 -25 180 8
331 14 335 13 7 -2 382 11 517 17 44 3 143 7 220 10 135 5 286 13 685 35 102
5 235 14 295 20 61 5 142 12 180 14 39 3 113 9 165 15 52 5 124 12 160 15 93
8 262 32 355 50 44 9 125 18 180 21 55 2 111 7 124 9 54 12 170 37 233 52 37
8 79 17 95 19 15 2 89 18 163 35 74 17 162 35 195 41 33 7 65 15 70 20 6 4 29
12 50 18 87 21 183 52 233 76 29 14 61 27 70 28 9 2 34 9 55 17 l37 14 -2 250
-3 250 -60 14 c-33 8 -73 20 -90 28 -16 7 -69 25 -117 38 -48 14 -95 29 -105
34 -10 5 -45 17 -78 27 -33 10 -73 21 -89 26 -16 5 -43 9 -60 9 -17 0 -42 6
-56 13 -14 8 -50 14 -80 15 -30 1 -80 10 -110 19 -77 23 -80 23 -81 5 -1 -10
-5 6 -9 33 -5 28 -9 263 -9 523 -1 307 -4 472 -11 472 -5 0 -10 -6 -10 -14z
m-2946 -545 c3 -4 -6 -6 -19 -3 -14 2 -25 6 -25 8 0 8 39 4 44 -5z m76 -201
c0 -5 -2 -10 -4 -10 -3 0 -8 5 -11 10 -3 6 -1 10 4 10 6 0 11 -4 11 -10z"/>
<path d="M1998 2553 c7 -3 16 -2 19 1 4 3 -2 6 -13 5 -11 0 -14 -3 -6 -6z"/>
<path d="M2098 2533 c7 -3 16 -2 19 1 4 3 -2 6 -13 5 -11 0 -14 -3 -6 -6z"/>
<path d="M2155 2520 c17 -4 39 -8 50 -8 16 0 15 2 -5 8 -14 4 -36 8 -50 8 -22
0 -22 -1 5 -8z"/>
<path d="M2238 2503 c6 -2 18 -2 25 0 6 3 1 5 -13 5 -14 0 -19 -2 -12 -5z"/>
<path d="M2293 2493 c9 -2 23 -2 30 0 6 3 -1 5 -18 5 -16 0 -22 -2 -12 -5z"/>
</g>
</svg>
